<svg width="154" height="40" viewBox="0 0 154 40" fill="none" xmlns="http://www.w3.org/2000/svg">
<g clip-path="url(#clip0_14_10)">
<path fill-rule="evenodd" clip-rule="evenodd" d="M20.7844 40C31.8301 40 40.7844 31.0457 40.7844 20C40.7844 8.95431 31.8301 0 20.7844 0C9.73871 0 0.784424 8.95431 0.784424 20C0.784424 31.0457 9.73871 40 20.7844 40ZM27.0237 9.31684C27.3274 8.23805 26.2805 7.60013 25.3244 8.2813L11.9775 17.7896C10.9406 18.5283 11.1037 20 12.2225 20H15.7371V19.9728H22.5869L17.0056 21.9421L14.5451 30.6832C14.2414 31.762 15.2882 32.3999 16.2444 31.7187L29.5913 22.2105C30.6282 21.4718 30.465 20 29.3463 20H24.0165L27.0237 9.31684Z" fill="#161616"/>
<path d="M49 17.7672C49 16.0636 49.3865 14.542 50.1596 13.2023C50.9495 11.8461 52.0167 10.7958 53.3612 10.0515C54.7225 9.29071 56.2434 8.91031 57.924 8.91031C59.8903 8.91031 61.6129 9.40649 63.0919 10.3989C64.5708 11.3912 65.6044 12.764 66.1926 14.5172H62.1339C61.7306 13.6902 61.1592 13.07 60.4197 12.6565C59.697 12.243 58.8567 12.0363 57.8988 12.0363C56.8736 12.0363 55.9577 12.2761 55.151 12.7557C54.3611 13.2188 53.7393 13.8804 53.2855 14.7405C52.8486 15.6005 52.6301 16.6094 52.6301 17.7672C52.6301 18.9084 52.8486 19.9173 53.2855 20.7939C53.7393 21.6539 54.3611 22.3238 55.151 22.8034C55.9577 23.2665 56.8736 23.4981 57.8988 23.4981C58.8567 23.4981 59.697 23.2913 60.4197 22.8779C61.1592 22.4478 61.7306 21.8193 62.1339 20.9924H66.1926C65.6044 22.7621 64.5708 24.1431 63.0919 25.1355C61.6297 26.1113 59.9071 26.5992 57.924 26.5992C56.2434 26.5992 54.7225 26.2271 53.3612 25.4828C52.0167 24.722 50.9495 23.6718 50.1596 22.3321C49.3865 20.9924 49 19.4707 49 17.7672Z" fill="#161616"/>
<path d="M72.7363 8.0916V26.4504H69.207V8.0916H72.7363Z" fill="#161616"/>
<path d="M78.013 11.0687C77.3912 11.0687 76.8702 10.8785 76.4501 10.4981C76.0467 10.1011 75.8451 9.61323 75.8451 9.03435C75.8451 8.45547 76.0467 7.97583 76.4501 7.59542C76.8702 7.19847 77.3912 7 78.013 7C78.6349 7 79.1475 7.19847 79.5508 7.59542C79.971 7.97583 80.181 8.45547 80.181 9.03435C80.181 9.61323 79.971 10.1011 79.5508 10.4981C79.1475 10.8785 78.6349 11.0687 78.013 11.0687ZM79.7525 12.7061V26.4504H76.2232V12.7061H79.7525Z" fill="#161616"/>
<path d="M86.7687 14.6908C87.2224 14.0623 87.8442 13.5413 88.6341 13.1279C89.4408 12.6978 90.3567 12.4828 91.3819 12.4828C92.5751 12.4828 93.6507 12.7723 94.6087 13.3511C95.5834 13.93 96.3481 14.757 96.9027 15.8321C97.4741 16.8906 97.7598 18.1228 97.7598 19.5286C97.7598 20.9345 97.4741 22.1832 96.9027 23.2748C96.3481 24.3499 95.5834 25.1851 94.6087 25.7805C93.6507 26.376 92.5751 26.6737 91.3819 26.6737C90.3567 26.6737 89.4492 26.4669 88.6593 26.0534C87.8863 25.6399 87.256 25.119 86.7687 24.4905V33H83.2394V12.7061H86.7687V14.6908ZM94.1549 19.5286C94.1549 18.7017 93.9785 17.9905 93.6255 17.395C93.2894 16.7831 92.8356 16.32 92.2642 16.0057C91.7096 15.6915 91.1046 15.5344 90.4492 15.5344C89.8106 15.5344 89.2055 15.6997 88.6341 16.0305C88.0795 16.3448 87.6258 16.8079 87.2728 17.4198C86.9367 18.0318 86.7687 18.7513 86.7687 19.5782C86.7687 20.4052 86.9367 21.1247 87.2728 21.7366C87.6258 22.3486 88.0795 22.82 88.6341 23.1508C89.2055 23.465 89.8106 23.6221 90.4492 23.6221C91.1046 23.6221 91.7096 23.4567 92.2642 23.126C92.8356 22.7952 93.2894 22.3238 93.6255 21.7118C93.9785 21.0999 94.1549 20.3721 94.1549 19.5286Z" fill="#161616"/>
<path d="M103.854 14.6908C104.307 14.0623 104.929 13.5413 105.719 13.1279C106.526 12.6978 107.442 12.4828 108.467 12.4828C109.66 12.4828 110.736 12.7723 111.694 13.3511C112.668 13.93 113.433 14.757 113.988 15.8321C114.559 16.8906 114.845 18.1228 114.845 19.5286C114.845 20.9345 114.559 22.1832 113.988 23.2748C113.433 24.3499 112.668 25.1851 111.694 25.7805C110.736 26.376 109.66 26.6737 108.467 26.6737C107.442 26.6737 106.534 26.4669 105.744 26.0534C104.971 25.6399 104.341 25.119 103.854 24.4905V33H100.324V12.7061H103.854V14.6908ZM111.24 19.5286C111.24 18.7017 111.063 17.9905 110.711 17.395C110.374 16.7831 109.921 16.32 109.349 16.0057C108.795 15.6915 108.19 15.5344 107.534 15.5344C106.896 15.5344 106.291 15.6997 105.719 16.0305C105.165 16.3448 104.711 16.8079 104.358 17.4198C104.022 18.0318 103.854 18.7513 103.854 19.5782C103.854 20.4052 104.022 21.1247 104.358 21.7366C104.711 22.3486 105.165 22.82 105.719 23.1508C106.291 23.465 106.896 23.6221 107.534 23.6221C108.19 23.6221 108.795 23.4567 109.349 23.126C109.921 22.7952 110.374 22.3238 110.711 21.7118C111.063 21.0999 111.24 20.3721 111.24 19.5286Z" fill="#161616"/>
<path d="M130.392 19.2805C130.392 19.7767 130.359 20.2233 130.291 20.6202H120.082C120.166 21.6126 120.519 22.3899 121.14 22.9523C121.762 23.5146 122.527 23.7958 123.434 23.7958C124.745 23.7958 125.678 23.2417 126.233 22.1336H130.039C129.636 23.4567 128.863 24.5483 127.72 25.4084C126.577 26.2519 125.174 26.6737 123.51 26.6737C122.166 26.6737 120.956 26.3842 119.88 25.8053C118.821 25.2099 117.989 24.3747 117.384 23.2996C116.796 22.2246 116.502 20.9841 116.502 19.5782C116.502 18.1559 116.796 16.9071 117.384 15.8321C117.972 14.757 118.796 13.93 119.855 13.3511C120.914 12.7723 122.132 12.4828 123.51 12.4828C124.838 12.4828 126.023 12.764 127.065 13.3263C128.123 13.8887 128.938 14.6908 129.51 15.7328C130.098 16.7583 130.392 17.9408 130.392 19.2805ZM126.737 18.2882C126.72 17.395 126.392 16.6838 125.754 16.1546C125.115 15.6088 124.334 15.3359 123.409 15.3359C122.535 15.3359 121.796 15.6005 121.191 16.1298C120.603 16.6425 120.241 17.362 120.107 18.2882H126.737Z" fill="#161616"/>
<path d="M136.497 14.8397C136.951 14.112 137.539 13.5413 138.262 13.1279C139.002 12.7144 139.842 12.5076 140.783 12.5076V16.1546H139.85C138.741 16.1546 137.901 16.4109 137.329 16.9237C136.775 17.4364 136.497 18.3295 136.497 19.6031V26.4504H132.968V12.7061H136.497V14.8397Z" fill="#161616"/>
<path d="M148.504 26.6737C147.362 26.6737 146.336 26.4752 145.429 26.0782C144.521 25.6648 143.799 25.1107 143.261 24.416C142.74 23.7214 142.454 22.9523 142.404 22.1088H145.958C146.026 22.638 146.286 23.0763 146.74 23.4237C147.21 23.771 147.79 23.9447 148.479 23.9447C149.151 23.9447 149.672 23.8123 150.042 23.5477C150.429 23.2831 150.622 22.944 150.622 22.5305C150.622 22.084 150.387 21.7532 149.916 21.5382C149.462 21.3066 148.731 21.0585 147.723 20.7939C146.681 20.5458 145.824 20.2894 145.152 20.0248C144.496 19.7602 143.925 19.355 143.437 18.8092C142.967 18.2634 142.732 17.5274 142.732 16.6011C142.732 15.8403 142.95 15.1457 143.387 14.5172C143.841 13.8887 144.479 13.3925 145.303 13.0286C146.143 12.6648 147.126 12.4828 148.252 12.4828C149.916 12.4828 151.244 12.8963 152.235 13.7233C153.227 14.5337 153.773 15.6336 153.874 17.0229H150.496C150.446 16.4771 150.21 16.0471 149.79 15.7328C149.387 15.402 148.841 15.2366 148.151 15.2366C147.513 15.2366 147.017 15.3524 146.664 15.584C146.328 15.8155 146.16 16.138 146.16 16.5515C146.16 17.0146 146.395 17.3702 146.866 17.6183C147.336 17.8499 148.067 18.0897 149.059 18.3378C150.067 18.5859 150.899 18.8422 151.555 19.1069C152.21 19.3715 152.773 19.785 153.244 20.3473C153.731 20.8931 153.983 21.6209 154 22.5305C154 23.3244 153.773 24.0356 153.319 24.6641C152.882 25.2926 152.244 25.7888 151.403 26.1527C150.58 26.5 149.614 26.6737 148.504 26.6737Z" fill="#161616"/>
</g>
<defs>
<clipPath id="clip0_14_10">
<rect width="154" height="40" fill="white"/>
</clipPath>
</defs>
</svg>
